<svg xmlns="http://www.w3.org/2000/svg"  viewBox="0 0 48 48" width="144px" height="144px"><path d="M41.357,19.018C36.541,12.234,26.741,8.43,21.329,7.527c-5.977-0.997-9.612-0.616-12.65-0.059	C7.56,7.675,4.154,8.303,3.624,10.882c-0.478,2.319,1.805,3.975,2.267,4.282c0.914,0.608,2.143,0.361,2.759-0.547	c0.616-0.91,0.377-2.151-0.529-2.773c-0.038-0.026-0.078-0.057-0.118-0.089c0.312-0.109,0.763-0.234,1.4-0.353	c2.497-0.46,5.63-0.868,11.269,0.07c4.571,0.762,13.344,4.113,17.425,9.86c1.753,2.469,2.403,5.102,1.934,7.827	c-0.454,2.631-1.607,4.418-3.528,5.462c-3.468,1.889-8.96,1.075-13.001-0.03v-8.55c1.312,0.004,2.55,0.128,4.134,0.424	c1.051,0.196,1.671,0.752,1.874,1.084c-0.039,0.017-0.085,0.034-0.141,0.053c-1.048,0.35-1.614,1.482-1.265,2.53	c0.35,1.047,1.48,1.617,2.53,1.265c2.313-0.771,3.034-2.552,2.937-3.962c-0.159-2.309-2.348-4.37-5.203-4.901	c-1.847-0.344-3.304-0.489-4.866-0.491V18.5c0-1.104-0.896-2-2-2s-2,0.896-2,2v3.719c-7.33,0.55-10.779,2.074-11.36,4.942	c-0.87,4.297,6.364,8.181,9.572,9.677c0.111,0.048,0.767,0.323,1.788,0.684V39.5c0,1.104,0.896,2,2,2s2-0.896,2-2v-0.779	c2.254,0.561,4.929,1.03,7.607,1.029c2.562,0,5.121-0.428,7.299-1.61c3.026-1.644,4.898-4.437,5.564-8.3	C44.628,26.027,43.749,22.386,41.357,19.018z M19.347,33.188c-3.504-1.639-6.945-4.122-7.262-5.217	c0.257-0.266,1.604-1.268,7.415-1.739v7.018C19.452,33.231,19.392,33.208,19.347,33.188z"/></svg>